<?xml version="1.0" encoding="UTF-8" standalone="no"?>
<!-- Generator: Adobe Illustrator 18.1.1, SVG Export Plug-In . SVG Version: 6.00 Build 0)  -->

<svg
   xmlns:dc="http://purl.org/dc/elements/1.1/"
   xmlns:cc="http://creativecommons.org/ns#"
   xmlns:rdf="http://www.w3.org/1999/02/22-rdf-syntax-ns#"
   xmlns:svg="http://www.w3.org/2000/svg"
   xmlns="http://www.w3.org/2000/svg"
   xmlns:sodipodi="http://sodipodi.sourceforge.net/DTD/sodipodi-0.dtd"
   xmlns:inkscape="http://www.inkscape.org/namespaces/inkscape"
   version="1.1"
   id="Capa_1"
   x="0px"
   y="0px"
   viewBox="0 0 349.557 349.557"
   style="enable-background:new 0 0 349.557 349.557;"
   xml:space="preserve"
   sodipodi:docname="crosshair_red.svg"
   inkscape:version="0.92.3 (2405546, 2018-03-11)"><metadata
   id="metadata51"><rdf:RDF><cc:Work
       rdf:about=""><dc:format>image/svg+xml</dc:format><dc:type
         rdf:resource="http://purl.org/dc/dcmitype/StillImage" /><dc:title></dc:title></cc:Work></rdf:RDF></metadata><defs
   id="defs49" /><sodipodi:namedview
   pagecolor="#ffffff"
   bordercolor="#666666"
   borderopacity="1"
   objecttolerance="10"
   gridtolerance="10"
   guidetolerance="10"
   inkscape:pageopacity="0"
   inkscape:pageshadow="2"
   inkscape:window-width="1920"
   inkscape:window-height="1049"
   id="namedview47"
   showgrid="false"
   inkscape:zoom="0.67514024"
   inkscape:cx="174.7785"
   inkscape:cy="174.7785"
   inkscape:window-x="0"
   inkscape:window-y="0"
   inkscape:window-maximized="1"
   inkscape:current-layer="Capa_1" />
<g
   id="g14"
   style="fill:#ff0000">
	<g
   id="g12"
   style="fill:#ff0000">
		<circle
   style="fill:#ff0000"
   cx="174.776"
   cy="174.779"
   r="13.921"
   id="circle2" />
		<path
   style="fill:#ff0000"
   d="M14.917,189.696h112.714c8.24,0,14.917-6.677,14.917-14.917s-6.677-14.917-14.917-14.917H14.917    C6.677,159.861,0,166.538,0,174.779S6.677,189.696,14.917,189.696z"
   id="path4" />
		<path
   style="fill:#ff0000"
   d="M189.693,14.92c0-8.24-6.677-14.917-14.917-14.917c-8.24,0-14.917,6.677-14.917,14.917v112.714    c0,8.24,6.677,14.917,14.917,14.917c8.24,0,14.917-6.677,14.917-14.917V14.92z"
   id="path6" />
		<path
   style="fill:#ff0000"
   d="M349.557,174.779c0-8.24-6.677-14.917-14.917-14.917H221.926c-8.24,0-14.917,6.677-14.917,14.917    s6.677,14.917,14.917,14.917H334.64C342.874,189.696,349.557,183.019,349.557,174.779z"
   id="path8" />
		<path
   style="fill:#ff0000"
   d="M159.858,334.637c0,8.24,6.677,14.917,14.917,14.917c8.24,0,14.917-6.677,14.917-14.917V221.923    c0-8.24-6.677-14.917-14.917-14.917c-8.24,0-14.917,6.677-14.917,14.917V334.637z"
   id="path10" />
	</g>
</g>
<g
   id="g16"
   style="fill:#ff0000">
</g>
<g
   id="g18"
   style="fill:#ff0000">
</g>
<g
   id="g20"
   style="fill:#ff0000">
</g>
<g
   id="g22"
   style="fill:#ff0000">
</g>
<g
   id="g24"
   style="fill:#ff0000">
</g>
<g
   id="g26"
   style="fill:#ff0000">
</g>
<g
   id="g28"
   style="fill:#ff0000">
</g>
<g
   id="g30"
   style="fill:#ff0000">
</g>
<g
   id="g32"
   style="fill:#ff0000">
</g>
<g
   id="g34"
   style="fill:#ff0000">
</g>
<g
   id="g36"
   style="fill:#ff0000">
</g>
<g
   id="g38"
   style="fill:#ff0000">
</g>
<g
   id="g40"
   style="fill:#ff0000">
</g>
<g
   id="g42"
   style="fill:#ff0000">
</g>
<g
   id="g44"
   style="fill:#ff0000">
</g>
</svg>