<?xml version="1.0" encoding="UTF-8" standalone="no"?>
<svg
   xmlns:dc="http://purl.org/dc/elements/1.1/"
   xmlns:cc="http://creativecommons.org/ns#"
   xmlns:rdf="http://www.w3.org/1999/02/22-rdf-syntax-ns#"
   xmlns:svg="http://www.w3.org/2000/svg"
   xmlns="http://www.w3.org/2000/svg"
   xmlns:sodipodi="http://sodipodi.sourceforge.net/DTD/sodipodi-0.dtd"
   xmlns:inkscape="http://www.inkscape.org/namespaces/inkscape"
   height="512pt"
   viewBox="0 0 512 512"
   width="512pt"
   version="1.1"
   id="svg6"
   sodipodi:docname="location.svg"
   inkscape:version="0.92.3 (2405546, 2018-03-11)">
  <metadata
     id="metadata12">
    <rdf:RDF>
      <cc:Work
         rdf:about="">
        <dc:format>image/svg+xml</dc:format>
        <dc:type
           rdf:resource="http://purl.org/dc/dcmitype/StillImage" />
        <dc:title></dc:title>
      </cc:Work>
    </rdf:RDF>
  </metadata>
  <defs
     id="defs10" />
  <sodipodi:namedview
     pagecolor="#ffffff"
     bordercolor="#666666"
     borderopacity="1"
     objecttolerance="10"
     gridtolerance="10"
     guidetolerance="10"
     inkscape:pageopacity="0"
     inkscape:pageshadow="2"
     inkscape:window-width="959"
     inkscape:window-height="480"
     id="namedview8"
     showgrid="false"
     inkscape:zoom="0.34570313"
     inkscape:cx="341.33333"
     inkscape:cy="341.33333"
     inkscape:window-x="0"
     inkscape:window-y="0"
     inkscape:window-maximized="0"
     inkscape:current-layer="svg6" />
  <path
     d="m8.828125 282.484375h45.902344c12.0625 91.066406 83.71875 162.722656 174.785156 174.785156v45.902344c.015625 4.871094 3.960937 8.8125 8.828125 8.828125h35.3125c4.867188-.015625 8.8125-3.957031 8.828125-8.828125v-45.902344c91.066406-12.0625 162.722656-83.71875 174.785156-174.785156h45.902344c4.871094-.015625 8.8125-3.960937 8.828125-8.828125v-35.3125c-.015625-4.867188-3.957031-8.8125-8.828125-8.828125h-45.902344c-12.0625-91.066406-83.71875-162.722656-174.785156-174.785156v-45.902344c-.015625-4.871094-3.960937-8.8125-8.828125-8.828125h-35.3125c-4.867188.015625-8.8125 3.957031-8.828125 8.828125v45.902344c-91.066406 12.0625-162.722656 83.71875-174.785156 174.785156h-45.902344c-4.871094.015625-8.8125 3.960937-8.828125 8.828125v35.3125c.015625 4.867188 3.957031 8.8125 8.828125 8.828125zm247.171875-176.554687c82.878906 0 150.070312 67.191406 150.070312 150.070312s-67.191406 150.070312-150.070312 150.070312-150.070312-67.191406-150.070312-150.070312c.117187-82.832031 67.238281-149.953125 150.070312-150.070312zm0 0"
     id="path2" />
  <path
     d="m326.621094 256c0 39.003906-31.617188 70.621094-70.621094 70.621094s-70.621094-31.617188-70.621094-70.621094 31.617188-70.621094 70.621094-70.621094 70.621094 31.617188 70.621094 70.621094zm0 0"
     id="path4" />
</svg>
