<?xml version="1.0" encoding="UTF-8" standalone="no"?>
<!-- Generator: Adobe Illustrator 18.1.1, SVG Export Plug-In . SVG Version: 6.00 Build 0)  -->

<svg
   xmlns:dc="http://purl.org/dc/elements/1.1/"
   xmlns:cc="http://creativecommons.org/ns#"
   xmlns:rdf="http://www.w3.org/1999/02/22-rdf-syntax-ns#"
   xmlns:svg="http://www.w3.org/2000/svg"
   xmlns="http://www.w3.org/2000/svg"
   xmlns:sodipodi="http://sodipodi.sourceforge.net/DTD/sodipodi-0.dtd"
   xmlns:inkscape="http://www.inkscape.org/namespaces/inkscape"
   version="1.1"
   id="Capa_1"
   x="0px"
   y="0px"
   viewBox="0 0 306.773 306.773"
   style="enable-background:new 0 0 306.773 306.773;"
   xml:space="preserve"
   sodipodi:docname="home.svg"
   inkscape:version="0.92.3 (2405546, 2018-03-11)"><metadata
   id="metadata41"><rdf:RDF><cc:Work
       rdf:about=""><dc:format>image/svg+xml</dc:format><dc:type
         rdf:resource="http://purl.org/dc/dcmitype/StillImage" /><dc:title></dc:title></cc:Work></rdf:RDF></metadata><defs
   id="defs39" /><sodipodi:namedview
   pagecolor="#ffffff"
   bordercolor="#666666"
   borderopacity="1"
   objecttolerance="10"
   gridtolerance="10"
   guidetolerance="10"
   inkscape:pageopacity="0"
   inkscape:pageshadow="2"
   inkscape:window-width="1920"
   inkscape:window-height="1049"
   id="namedview37"
   showgrid="false"
   inkscape:zoom="0.76929845"
   inkscape:cx="-196.93267"
   inkscape:cy="153.38651"
   inkscape:window-x="0"
   inkscape:window-y="0"
   inkscape:window-maximized="1"
   inkscape:current-layer="Capa_1" />
<g
   id="g4"
   style="fill:#000000">
	<path
   style="fill:#000000"
   d="M302.93,149.794c5.561-6.116,5.024-15.49-1.199-20.932L164.63,8.898   c-6.223-5.442-16.2-5.328-22.292,0.257L4.771,135.258c-6.092,5.585-6.391,14.947-0.662,20.902l3.449,3.592   c5.722,5.955,14.971,6.665,20.645,1.581l10.281-9.207v134.792c0,8.27,6.701,14.965,14.965,14.965h53.624   c8.264,0,14.965-6.695,14.965-14.965v-94.3h68.398v94.3c-0.119,8.264,5.794,14.959,14.058,14.959h56.828   c8.264,0,14.965-6.695,14.965-14.965V154.024c0,0,2.84,2.488,6.343,5.567c3.497,3.073,10.842,0.609,16.403-5.513L302.93,149.794z"
   id="path2" />
</g>
<g
   id="g6"
   style="fill:#000000">
</g>
<g
   id="g8"
   style="fill:#000000">
</g>
<g
   id="g10"
   style="fill:#000000">
</g>
<g
   id="g12"
   style="fill:#000000">
</g>
<g
   id="g14"
   style="fill:#000000">
</g>
<g
   id="g16"
   style="fill:#000000">
</g>
<g
   id="g18"
   style="fill:#000000">
</g>
<g
   id="g20"
   style="fill:#000000">
</g>
<g
   id="g22"
   style="fill:#000000">
</g>
<g
   id="g24"
   style="fill:#000000">
</g>
<g
   id="g26"
   style="fill:#000000">
</g>
<g
   id="g28"
   style="fill:#000000">
</g>
<g
   id="g30"
   style="fill:#000000">
</g>
<g
   id="g32"
   style="fill:#000000">
</g>
<g
   id="g34"
   style="fill:#000000">
</g>
</svg>